<svg clip-rule="evenodd" fill-rule="evenodd" stroke-linejoin="round" stroke-miterlimit="2" viewBox="0 0 64 64" xmlns="http://www.w3.org/2000/svg"><path d="m-.000738 0h64v64h-64z" fill="none"/><g fill-rule="nonzero"><path d="m0 30c0 1.104.896 2 2 2h28c1.104 0 2-.896 2-2v-16h-32z" fill="#fff" stroke="#b3b3b3" stroke-width="1.9" transform="matrix(1.84375 0 0 1.84375 2.499 -.942)"/><path d="m30 4h-10c-1.104 0-2 .896-2 2 0 0-.26 1.834-2 2h-1.321c-1.104 0-2 .864-2 1.968v2.032h19.321v-6c0-1.104-.896-2-2-2z" fill="#c44d58" stroke="#c44d58" stroke-width=".53" transform="matrix(1.89286 0 0 1.89286 -12.286 -2.071)"/><path d="m30 4h-10c-1.104 0-2 .896-2 2 0 0-.26 1.834-2 2h-14c-1.104 0-2 .864-2 1.968v2.032h32v-6c0-1.104-.896-2-2-2z" fill="#88c200" stroke="#88c200" stroke-width=".53" transform="matrix(1.89286 0 0 1.89286 1.714 -2.071)"/><path d="m8.998 20h13.966c.286 0 .54-.138.72-.352l.004.004c.39-.434.39-1.138 0-1.572l-6.998-7.754c-.39-.434-1.022-.434-1.41 0-.01.012-.014.028-.024.04l-6.984 7.714c-.39.434-.39 1.138 0 1.572.004.004.008.006.012.01.182.208.432.338.714.338z" fill="#8fcceb" transform="translate(16.019 19.201)"/><path d="m8.998 20h13.966c.286 0 .54-.138.72-.352l.004.004c.39-.434.39-1.138 0-1.572l-6.998-7.754c-.39-.434-1.022-.434-1.41 0-.01.012-.014.028-.024.04l-6.984 7.714c-.39.434-.39 1.138 0 1.572.004.004.008.006.012.01.182.208.432.338.714.338z" fill="#8fcceb" transform="matrix(-1 0 0 -1 47.979 62.201)"/></g></svg>